<svg version="1.0" xmlns="http://www.w3.org/2000/svg" width="352" height="352" viewBox="0 0 264 264"><path d="M117 1.1c-29 3-48.4 11.3-64.3 27.5-6.3 6.4-10.9 14.1-14.3 23.9-2.3 6.9-2.7 9.7-2.8 20-.1 13.5.4 17.4 3.4 25.9 8.1 23.5 29.6 38 73.2 49.5 6.2 1.6 14.7 3.9 18.8 5.1 4.1 1.2 9.8 2.7 12.5 3.5 27.5 7.5 40.2 17.2 40.9 31.3.8 15.7-8.7 26.3-27.9 31.4-10.6 2.8-34.6 3.1-44.5.5-14.7-3.9-24.7-11.5-30.5-23.1-5.5-10.9-6.4-11.2-29.2-11.1-13 .1-19 .5-20.7 1.5-3.7 1.9-4.2 6.3-2.2 16.5 2.9 14.3 14.2 30.8 27.1 39.3 2.2 1.5 4.2 2.9 4.5 3.2 2.4 2.7 25 12.1 32.5 13.6 16.6 3.3 20.4 3.7 36.5 3.8 18.4.1 24.1-.4 36.3-2.9 31.6-6.5 54.3-22.4 64.2-45 1.4-3 2.6-6.5 2.9-7.7.2-1.3.8-4.1 1.4-6.3.5-2.2 1-4.9 1.1-6 .5-22-1.5-32-8.7-43.1-11.1-17-30.5-27.3-70.2-37.5-40.4-10.4-54.8-15.9-63-24.2-10.3-10.3-9.4-29.4 1.9-38.5 14.5-11.6 46.2-12.8 64.1-2.4 5.7 3.4 12.3 10.1 13.8 14.1.7 1.7 1.7 4.5 2.3 6.1.7 1.7 2.4 3.9 3.9 5 2.6 1.8 4.5 2 22.8 2 18.6 0 20.1-.1 22.6-2.1 3.5-2.7 3.5-8.4 0-18.7-9.7-29.1-40.2-50.3-78.6-54.8-7.6-.9-22.7-1-29.8-.3z"/></svg>