<svg width="200" height="30" viewBox="0 0 300 80" fill="none" xmlns="http://www.w3.org/2000/svg"><path d="M5.795 49.227a7.567 7.567 0 01-3.535-.853C1.123 47.846.554 46.89.554 45.51c0-1.057.345-2.093 1.036-3.108.65-.975 1.442-1.89 2.377-2.743.934-.893 1.808-1.625 2.62-2.194 1.99-1.422 4.347-2.56 7.07-3.412 2.721-.853 5.301-1.28 7.739-1.28.366 0 .548.06.548.183 0 .162-.162.243-.487.243-2.357 0-4.754.508-7.191 1.524-2.397 1.016-4.53 2.214-6.4 3.596-.65.447-1.38 1.076-2.193 1.889a14.276 14.276 0 00-2.133 2.56c-.61.974-.914 1.95-.914 2.925 0 1.056.305 1.787.914 2.193.65.407 1.422.61 2.316.61 1.097 0 2.255-.203 3.473-.61 1.26-.406 2.215-.792 2.865-1.158 1.787-.934 3.534-2.173 5.24-3.717a47.386 47.386 0 004.876-4.997 68.069 68.069 0 004.266-5.607 69.65 69.65 0 003.473-5.423c.813-1.382 1.626-3.048 2.438-4.998a47.119 47.119 0 002.133-6.094c.61-2.072.914-3.92.914-5.545V9.98c0-.122-.02-.285-.06-.488a37.73 37.73 0 00-2.56-.183 30.282 30.282 0 00-2.438-.121c-1.787 0-3.555.101-5.302.304-1.747.163-3.331.488-4.753.975-1.422.447-2.56 1.118-3.413 2.011-.853.854-1.28 1.97-1.28 3.352 0 1.219.366 2.418 1.097 3.596a15.699 15.699 0 002.743 3.169c1.096.934 2.133 1.665 3.108 2.194.162.04.243.122.243.243 0 .082-.122.122-.365.122-.244 0-.427-.04-.549-.122a39.91 39.91 0 01-3.23-2.255 15.048 15.048 0 01-2.437-2.376c-.691-.894-1.28-1.93-1.768-3.108-.487-1.219-.73-2.418-.73-3.596 0-1.056.243-2.01.73-2.864.488-.853 1.32-1.503 2.499-1.95 1.016-.366 2.295-.63 3.84-.792a45.995 45.995 0 014.814-.244c1.787 0 3.534.06 5.24.183 1.748.122 3.19.284 4.327.487a3.973 3.973 0 00-.487-.853 6.648 6.648 0 00-.488-.548c.122-.041.285-.061.488-.061.569 0 1.097.203 1.584.61.529.365.914.75 1.158 1.157a41.2 41.2 0 013.535.548c.975.163 1.605.305 1.889.427.203.081.305.183.305.305 0 .244-.285.325-.853.244l-4.388-.549c.162.853.244 1.585.244 2.194 0 1.625-.264 3.413-.793 5.363a37.405 37.405 0 01-1.95 5.667c-.772 1.829-1.584 3.454-2.438 4.876-1.056 1.747-2.335 3.595-3.839 5.545a64.617 64.617 0 01-4.997 5.729 44.801 44.801 0 01-5.728 5.058c-1.991 1.544-4.063 2.763-6.216 3.656-2.154.894-4.327 1.341-6.521 1.341zm30.907-8.044c-.894 0-1.584-.203-2.072-.61-.447-.406-.63-.934-.548-1.584.08-.447.203-.955.365-1.524.163-.568.366-1.137.61-1.706l1.462-3.413a.712.712 0 00-.122-.182v-.183a.513.513 0 01.061-.427c1.057-1.625 2.032-2.986 2.925-4.083.894-1.097 1.483-1.645 1.768-1.645.569 0 1.239.386 2.01 1.157a38.417 38.417 0 00-1.645 2.194 49.268 49.268 0 00-1.645 2.377c-.569.853-1.178 1.788-1.828 2.803-.61.976-1.036 1.87-1.28 2.682-.244.731-.366 1.3-.366 1.706 0 .569.203.853.61.853.528 0 1.3-.548 2.316-1.645a35.181 35.181 0 002.254-2.681 85.578 85.578 0 002.438-3.291 984.996 984.996 0 002.255-3.17 62.65 62.65 0 011.828-2.437c.447-.569.853-.853 1.219-.853.528 0 1.138.447 1.828 1.34a75.217 75.217 0 00-2.072 3.17 46.294 46.294 0 00-2.255 3.9c-.65 1.3-1.076 2.458-1.28 3.474l-.121.487v.548c0 1.179.304 1.768.914 1.768.325 0 .71-.183 1.158-.549.487-.365.955-.792 1.401-1.28.447-.487.793-.893 1.036-1.218a85.117 85.117 0 003.718-5.424c.244-.366.406-.549.487-.549.082 0 .102.082.061.244 0 .122-.02.224-.06.305a87.045 87.045 0 01-2.865 4.388c-1.056 1.584-2.113 2.884-3.169 3.9-.569.569-1.137.853-1.706.853-1.097 0-1.91-.264-2.438-.792-.528-.528-.792-1.117-.792-1.767 0-.407.06-.833.183-1.28.122-.488.264-.975.426-1.463l1.646-4.327a200.33 200.33 0 00-1.524 1.95c-.406.488-.772.955-1.097 1.402-.284.406-.61.874-.975 1.402-.365.487-.752.975-1.158 1.462a25.719 25.719 0 01-2.255 2.62c-.73.732-1.3 1.098-1.706 1.098zm19.389.914c-1.016 0-1.89-.366-2.62-1.097-.732-.69-1.097-1.828-1.097-3.413 0-2.031.528-4.51 1.584-7.435s2.397-5.992 4.022-9.202a87.371 87.371 0 014.022-6.886c1.422-2.194 2.824-4.144 4.205-5.85 1.382-1.747 2.641-3.108 3.779-4.084 1.178-1.015 2.132-1.523 2.864-1.523.69 0 1.198.183 1.523.548.366.366.67.772.914 1.22.285.446.65.812 1.097 1.096-.04.935-.528 2.113-1.462 3.535a70.884 70.884 0 01-3.352 4.631c-.853 1.016-2.072 2.458-3.656 4.327a231.494 231.494 0 00-4.632 5.668 67.21 67.21 0 00-3.352 4.448c-.975 1.422-1.726 2.6-2.255 3.535-.162.284-.284.386-.365.305-.082-.082-.082-.203 0-.366.406-.813 1.036-1.848 1.889-3.108.894-1.3 1.89-2.681 2.986-4.144a222.766 222.766 0 013.23-4.205c1.056-1.381 1.97-2.58 2.742-3.595.772-1.016 1.3-1.686 1.585-2.011.61-.772 1.198-1.504 1.767-2.194a43.938 43.938 0 001.524-2.072c.487-.732.832-1.382 1.036-1.95.243-.57.365-1.037.365-1.402 0-.65-.264-.975-.792-.975-.366 0-.833.183-1.402.548-.528.366-1.137.955-1.828 1.768a160.32 160.32 0 00-3.595 4.51 115.064 115.064 0 00-4.144 5.789 71.686 71.686 0 00-3.962 6.642 47.943 47.943 0 00-2.925 6.887c-.731 2.275-1.097 4.469-1.097 6.581 0 .975.203 1.666.61 2.072.406.407.894.61 1.462.61.61 0 1.24-.163 1.89-.488.69-.365 1.259-.812 1.706-1.34a24.706 24.706 0 002.01-2.438 53.703 53.703 0 001.83-2.499 34.64 34.64 0 001.218-1.828c.122-.203.244-.305.366-.305.203 0 .203.163 0 .488a42.923 42.923 0 01-2.316 3.473 72.224 72.224 0 01-2.316 3.047 7.38 7.38 0 01-2.377 1.95c-.893.488-1.787.732-2.681.732zm-1.699 18.1c-.569 0-1.178-.204-1.828-.61a5.615 5.615 0 01-1.706-1.523c-.488-.57-.732-1.158-.732-1.768 0-.65.366-1.462 1.097-2.437.732-.975 1.625-1.97 2.682-2.986a49.03 49.03 0 013.169-2.804c1.015-.853 1.828-1.503 2.437-1.95a57.447 57.447 0 013.474-2.194 84.259 84.259 0 013.23-1.706 76.816 76.816 0 013.9-1.646 52.523 52.523 0 014.205-1.584c.325-.569.65-1.361.975-2.377a41.86 41.86 0 00.853-3.23c.244-1.097.366-1.97.366-2.62 0-.203-.02-.427-.061-.67-.04-.244-.142-.366-.305-.366-.162 0-.345.101-.548.305-.488.528-1.117 1.34-1.89 2.437a233.963 233.963 0 01-2.498 3.352 33.456 33.456 0 01-2.62 2.986c-.813.813-1.544 1.219-2.194 1.219-.813 0-1.443-.163-1.89-.488-.446-.284-.67-.832-.67-1.645 0-.731.142-1.524.427-2.377.284-.853.61-1.645.975-2.376.365-.732.65-1.26.853-1.585-.203.122-.305.142-.305.061a.712.712 0 01.122-.183c.04-.162.142-.365.305-.61 1.056-1.543 1.97-2.762 2.742-3.656.813-.893 1.361-1.34 1.646-1.34.325 0 .63.122.914.365.325.203.69.468 1.097.793-.447.365-1.077 1.056-1.89 2.071a53.562 53.562 0 00-2.498 3.413 26.625 26.625 0 00-2.011 3.535 9.975 9.975 0 00-.549 1.28c-.08.365-.121.65-.121.853 0 .487.203.731.609.731.365 0 .812-.162 1.34-.487a7.286 7.286 0 001.524-1.28 44.19 44.19 0 004.205-4.997A153.826 153.826 0 0076.88 26.8h.243a.995.995 0 01.305-.061c.569 0 1.016.162 1.34.487.245.244.366.752.366 1.524s-.121 1.706-.365 2.803a32.272 32.272 0 01-.793 3.29 40.19 40.19 0 01-.853 2.804c-.284.813-.487 1.32-.61 1.524 1.098.162 1.91.61 2.439 1.34.568.691.853 1.504.853 2.438v.488c0 .162-.02.325-.061.487-.04.285-.163.407-.366.366-.162 0-.223-.122-.183-.366.082-1.056-.06-1.99-.426-2.803-.366-.772-1.24-1.158-2.62-1.158-.732 1.422-1.707 3.027-2.926 4.814a52.07 52.07 0 01-4.083 5.363 43.239 43.239 0 01-4.814 4.997c-1.666 1.544-3.352 2.763-5.058 3.657-1.707.934-3.332 1.401-4.876 1.401zm-.67-1.158c.975 0 2.295-.468 3.961-1.402 1.178-.65 2.438-1.564 3.778-2.742a45.538 45.538 0 003.962-3.962 69.676 69.676 0 003.717-4.266c1.178-1.421 2.174-2.742 2.986-3.96.813-1.179 1.381-2.093 1.706-2.743-1.096.244-2.457.711-4.083 1.402-1.625.69-3.351 1.564-5.18 2.62a55.29 55.29 0 00-5.24 3.657 32.322 32.322 0 00-4.51 4.265 15.06 15.06 0 00-1.828 2.804c-.529 1.015-.793 1.91-.793 2.681 0 1.097.508 1.646 1.524 1.646zm33.04-41.623c0-.04.02-.082.06-.122l.122-.122a.955.955 0 01.183-.244c.325-.244.67-.589 1.036-1.036a7.286 7.286 0 001.036-1.34c.325-.529.488-1.077.488-1.646 0-.528-.122-.914-.366-1.158a2.624 2.624 0 00-.67-.67 3.705 3.705 0 01-.549-.427.957.957 0 00-.183-.244.678.678 0 01-.06-.304c0-1.097.548-1.646 1.645-1.646.569 0 1.117.183 1.645.549.528.365.793.812.793 1.34 0 1.22-.346 2.397-1.036 3.535-.65 1.138-1.483 2.052-2.499 2.742-.244.163-.508.325-.792.488a2.023 2.023 0 01-.792.183c0 .04-.02.081-.061.122zM100.237 41a5.017 5.017 0 01-2.56-.67c-.731-.488-1.097-1.179-1.097-2.072 0-.325.061-.67.183-1.036.122-.407.284-.711.488-.915 0 .447.142.854.426 1.22.285.324.61.588.975.792a6.37 6.37 0 001.036.365c.366.082.691.122.975.122.935 0 1.666-.325 2.194-.975.528-.69.792-1.422.792-2.194 0-.69-.182-1.3-.548-1.828a5.356 5.356 0 00-.792-.853 19.09 19.09 0 00-.914-.853 3.872 3.872 0 01-.671-.732 16.045 16.045 0 01-.792-1.28l-2.56 3.9c-.609.895-1.178 1.727-1.706 2.5-.528.771-1.219 1.665-2.072 2.68-.244.285-.426.427-.548.427-.163-.04-.143-.203.06-.487a77.991 77.991 0 002.316-3.047c.61-.853 1.32-1.89 2.133-3.108a20.43 20.43 0 001.22-1.95 8.428 8.428 0 00.974-2.255c0-1.26.427-2.357 1.28-3.291a8.03 8.03 0 013.108-2.194c1.259-.528 2.438-.731 3.535-.61.243 0 .507.184.792.55.284.365.528.771.731 1.218.203.406.305.731.305.975 0 .122-.041.183-.122.183-.122 0-.284-.081-.488-.244-.325-.284-.812-.427-1.462-.427-.853 0-1.788.244-2.803.732a9.32 9.32 0 00-2.682 1.767c-.731.69-1.097 1.422-1.097 2.194 0 .569.224 1.097.671 1.584a17.55 17.55 0 001.584 1.402c.609.406 1.097.853 1.463 1.34.406.448.69.895.853 1.342.162.446.244.893.244 1.34 0 .772-.244 1.483-.732 2.133a6.375 6.375 0 01-1.767 1.524c-.853.487-1.828.731-2.925.731zm32.624 2.681c-.406 0-.833-.182-1.28-.548-.406-.366-.609-.995-.609-1.89 0-.365.243-1.035.731-2.01.488-.975 1.138-2.113 1.95-3.413.853-1.34 1.767-2.763 2.742-4.266a134.797 134.797 0 012.926-4.327c.243-.325.528-.71.853-1.158.325-.447.792-1.056 1.401-1.828a80.663 80.663 0 00-6.886 1.767 954.78 954.78 0 01-6.094 1.89 130.549 130.549 0 01-5.85 1.645c-1.91.447-3.799.772-5.668.975-1.219.122-2.092-.284-2.62-1.219a6.08 6.08 0 01-.793-3.047c0-.528.366-1.097 1.097-1.706.772-.61 1.727-1.199 2.865-1.767a30.283 30.283 0 013.595-1.463c1.26-.447 2.377-.752 3.352-.914.122-.04.244-.061.365-.061h.366c.61 0 .914.081.914.244 0 .203-.447.386-1.34.548-.65.081-1.504.325-2.56.731-1.016.407-2.011.813-2.986 1.22-1.706.69-2.925 1.32-3.657 1.888-.69.529-1.036 1.016-1.036 1.463 0 .447.366.813 1.097 1.097.732.244 1.625.366 2.682.366.731 0 1.483-.061 2.255-.183a60.943 60.943 0 003.412-.61c1.179-.243 2.275-.487 3.291-.73 1.016-.245 1.788-.427 2.316-.55 1.259-.324 3.067-.812 5.424-1.462a78.318 78.318 0 017.617-1.645 443.957 443.957 0 013.779-4.876 284.11 284.11 0 003.839-5.119 87.085 87.085 0 003.291-4.753 63.628 63.628 0 001.523-2.438c.407-.731.61-1.36.61-1.89 0-.568-.305-.994-.914-1.279-.569-.284-1.585-.426-3.047-.426-1.341 0-3.108.162-5.302.487a99.76 99.76 0 00-7.069 1.219 86.064 86.064 0 00-7.557 1.95c-4.063 1.178-7.801 2.58-11.213 4.205-3.372 1.585-6.074 3.25-8.106 4.997-.65.528-.975 1.138-.975 1.829 0 .406.122.771.366 1.096.284.325.731.59 1.341.793v.06c0 .041-.041.122-.122.244-.081.082-.244.102-.488.061-.325-.081-.873-.345-1.645-.792a12.759 12.759 0 01-2.072-1.584c-.61-.61-.914-1.158-.914-1.646 0-.61.711-1.381 2.133-2.316 1.422-.934 3.351-1.93 5.789-2.986 2.478-1.097 5.261-2.173 8.349-3.23a131.549 131.549 0 019.568-2.864 93.362 93.362 0 018.958-1.889c2.885-.447 5.444-.67 7.679-.67 2.559 0 4.611.365 6.155 1.097 1.544.69 2.316 1.868 2.316 3.534 0 .731-.325 1.666-.975 2.803-.65 1.138-1.504 2.377-2.56 3.718a70.156 70.156 0 01-3.291 3.9c-1.178 1.26-2.275 2.438-3.291 3.535a602.967 602.967 0 01-2.437 2.62c.528 0 1.361.061 2.498.183a22.68 22.68 0 013.596.549c1.219.284 2.234.71 3.047 1.28.853.527 1.219 1.218 1.097 2.071.528.488.792 1.057.792 1.707 0 .447-.284.893-.853 1.34a25.09 25.09 0 01-2.011 1.28c-.772.447-1.503.894-2.194 1.34-.041.041-.102.021-.183-.06-.04-.122-.04-.203 0-.244a29.749 29.749 0 002.011-1.767c.813-.732 1.219-1.767 1.219-3.108 0-.894-.366-1.564-1.097-2.011-.691-.447-1.564-.752-2.62-.914a20.823 20.823 0 00-3.169-.244c-1.463 0-2.56.06-3.291.183a92.676 92.676 0 00-5.79 7.069 56.964 56.964 0 00-4.814 7.74c.081 0 .142.08.183.243.081.122.162.142.244.061.203-.203.386-.365.548-.487a2.99 2.99 0 01.427-.305l.122-.061h.061c.081 0 .121.04.121.122 0 .162-.101.406-.304.731-.203.325-.346.61-.427.853a12.868 12.868 0 01-.853 1.646c-.325.65-.63 1.3-.914 1.95-.203.284-.549.426-1.036.426zm27.318-1.584c-1.015 0-1.889-.366-2.62-1.097-.732-.69-1.097-1.828-1.097-3.413 0-2.031.528-4.51 1.584-7.435 1.057-2.925 2.397-5.992 4.022-9.202a87.533 87.533 0 014.023-6.886c1.422-2.194 2.823-4.144 4.205-5.85 1.381-1.747 2.64-3.108 3.778-4.084 1.178-1.015 2.133-1.523 2.864-1.523.691 0 1.199.183 1.524.548.365.366.67.772.914 1.22.284.446.65.812 1.097 1.096-.041.935-.528 2.113-1.463 3.535a70.747 70.747 0 01-3.352 4.631c-.853 1.016-2.072 2.458-3.656 4.327a231.499 231.499 0 00-4.632 5.668 67.328 67.328 0 00-3.351 4.448c-.976 1.422-1.727 2.6-2.255 3.535-.163.284-.285.386-.366.305-.081-.082-.081-.203 0-.366.406-.813 1.036-1.848 1.889-3.108.894-1.3 1.889-2.681 2.986-4.144a224.454 224.454 0 013.23-4.205 1400.93 1400.93 0 002.743-3.595c.772-1.016 1.3-1.686 1.584-2.011a145.07 145.07 0 011.767-2.194 43.897 43.897 0 001.524-2.072c.487-.732.833-1.382 1.036-1.95.244-.57.366-1.037.366-1.402 0-.65-.264-.975-.793-.975-.365 0-.833.183-1.401.548-.528.366-1.138.955-1.829 1.768a160.978 160.978 0 00-3.595 4.51 114.873 114.873 0 00-4.144 5.789 71.685 71.685 0 00-3.961 6.642 47.852 47.852 0 00-2.925 6.887c-.732 2.275-1.097 4.469-1.097 6.581 0 .975.203 1.666.609 2.072.406.407.894.61 1.463.61.609 0 1.239-.163 1.889-.488.69-.365 1.259-.812 1.706-1.34a24.663 24.663 0 002.011-2.438 53.52 53.52 0 001.828-2.499c.569-.812.976-1.422 1.219-1.828.122-.203.244-.305.366-.305.203 0 .203.163 0 .488a42.879 42.879 0 01-2.316 3.473 71.788 71.788 0 01-2.316 3.047 7.38 7.38 0 01-2.376 1.95c-.894.488-1.788.732-2.682.732zm12.318-.183c-1.178 0-2.194-.447-3.047-1.34-.813-.894-1.219-2.113-1.219-3.657 0-.569.061-1.178.183-1.828.162-.691.386-1.402.67-2.133.61-1.422 1.443-2.783 2.499-4.083 1.097-1.3 2.275-2.377 3.534-3.23 1.26-.853 2.458-1.28 3.596-1.28.122 0 .264.061.427.183.162.081.284.162.365.244l.305.304c.488.488.955.772 1.402.854.487.08.873.325 1.158.73.487.773.731 1.707.731 2.804 0 1.503-.467 3.149-1.402 4.936-.894 1.747-2.112 3.332-3.656 4.754-.772.69-1.625 1.32-2.56 1.889a5.647 5.647 0 01-2.986.853zm.427-.67c.975 0 1.97-.325 2.986-.975 1.015-.691 1.95-1.585 2.803-2.682a18.826 18.826 0 002.255-3.473c.65-1.22 1.056-2.377 1.219-3.474a3.15 3.15 0 00.061-.61c.04-.243.061-.446.061-.609 0-1.097-.265-1.889-.793-2.377-.528-.528-1.158-.792-1.889-.792-.772 0-1.564.244-2.377.732-.771.446-1.747 1.38-2.925 2.803a35.815 35.815 0 00-3.169 4.327c-.853 1.34-1.279 2.64-1.279 3.9 0 .894.243 1.666.731 2.316.528.61 1.3.914 2.316.914zm15.644.61c-1.381 0-2.356-.448-2.925-1.341-.528-.894-.792-1.93-.792-3.108 0-.935.122-1.87.366-2.804.243-.934.568-1.788.975-2.56-.325-.202-.447-.365-.366-.487a22.04 22.04 0 001.097-1.523 27.79 27.79 0 011.28-1.768 33.14 33.14 0 011.34-1.584c.407-.447.752-.69 1.036-.731.204-.082.366-.143.488-.183a.999.999 0 01.305-.061c.081 0 .223.101.426.304a5.6 5.6 0 01.427.61c.162.203.386.345.67.426a32.445 32.445 0 00-2.255 2.804c-.69.975-1.34 1.99-1.95 3.047-.65 1.137-1.117 2.153-1.401 3.047-.244.894-.366 1.686-.366 2.377 0 .325.041.63.122.914.081.284.162.528.244.731.284.61.812.914 1.584.914s1.422-.244 1.95-.731c.528-.407 1.077-1.016 1.646-1.828a45.336 45.336 0 001.523-2.316c.488-.772.792-1.24.914-1.402.163-.244.549-.792 1.158-1.645.61-.894 1.28-1.87 2.011-2.925a93.646 93.646 0 012.011-2.804c.61-.812.996-1.26 1.158-1.34.325-.122.569-.183.731-.183a.41.41 0 01.366.183c.081.121.203.284.366.487.244.366.548.63.914.792a22.2 22.2 0 00-2.316 2.743 49.308 49.308 0 00-1.95 3.108c-.691 1.26-1.198 2.356-1.524 3.29-.284.894-.426 1.646-.426 2.255 0 .529.081.935.244 1.22.447.812 1.076 1.218 1.889 1.218.528 0 .975-.163 1.341-.487.812-.61 1.645-1.544 2.498-2.804a57.883 57.883 0 002.621-4.205 102.578 102.578 0 002.437-4.448 116.378 116.378 0 011.829-3.535 294.134 294.134 0 012.742-4.997 30.206 30.206 0 013.23-4.632c1.219-1.422 2.6-2.54 4.144-3.352 1.584-.853 3.412-1.28 5.485-1.28h.731c.284 0 .569.02.853.062.284.04.427.121.427.243.04.082-.102.122-.427.122-1.625 0-3.25.488-4.875 1.463-1.625.934-3.19 2.153-4.693 3.656a39.665 39.665 0 00-3.961 4.754c-1.178 1.625-2.133 3.108-2.864 4.448-.447.813-1.016 1.87-1.707 3.17a73.586 73.586 0 01-2.254 4.143 42.217 42.217 0 01-2.621 4.144c-.894 1.3-1.788 2.357-2.681 3.17-.894.812-1.747 1.218-2.56 1.218-1.341 0-2.295-.447-2.864-1.34-.528-.894-.792-2.093-.792-3.596v-.975l.122-.975c-.854 1.34-1.605 2.438-2.255 3.29a19.41 19.41 0 01-1.768 2.073c-.528.528-1.076.914-1.645 1.157-.528.244-1.016.366-1.463.366zm26.9-.062c-1.097 0-2.112-.386-3.047-1.158-.894-.812-1.34-1.99-1.34-3.534 0-1.22.325-2.54.975-3.961a20.388 20.388 0 012.498-4.084c1.056-1.3 2.174-2.376 3.352-3.23 1.178-.853 2.275-1.3 3.291-1.34.162.162.345.284.548.366.244.08.467.162.671.243l1.584.366c.894.244 1.341.813 1.341 1.706 0 .529-.183 1.097-.549 1.707-.325.61-.833 1.137-1.523 1.584-.366.244-.772.488-1.219.731a35.6 35.6 0 01-1.28.732l-2.742 1.462a13.5 13.5 0 00-2.255 1.463c-.65.488-1.117 1.016-1.402 1.584l-.182.061c-.082 0-.102-.08-.061-.243.284-.691.832-1.382 1.645-2.072a20.577 20.577 0 012.56-1.89c.406-.325.812-.609 1.218-.853.447-.244.874-.508 1.28-.792.406-.284.792-.569 1.158-.853.406-.325.752-.63 1.036-.914.325-.325.548-.65.67-.975.163-.325.244-.61.244-.854 0-.771-.447-1.157-1.341-1.157-.568 0-1.218.243-1.95.73a16.012 16.012 0 00-2.559 2.195 24.903 24.903 0 00-2.316 2.681c-.772 1.057-1.463 2.275-2.072 3.657-.569 1.381-.853 2.539-.853 3.473 0 .935.264 1.605.792 2.011.569.366 1.219.549 1.95.549 1.016 0 1.991-.264 2.925-.792a9.732 9.732 0 001.95-1.524c.61-.65 1.118-1.219 1.524-1.706.325-.407.691-.894 1.097-1.463.447-.569.752-.995.914-1.28.081-.08.142-.08.183 0a.462.462 0 01.061.183c-.163.285-.447.752-.853 1.402-.366.61-.914 1.381-1.646 2.316-.853 1.096-1.747 1.95-2.681 2.56-.935.608-2.133.913-3.596.913zm14.93 0c-.975 0-1.645-.325-2.011-.975a3.426 3.426 0 01-.366-2.194c.163-1.056.447-1.91.853-2.56.447-.65.975-1.36 1.585-2.132a38.98 38.98 0 001.402-2.133c.446-.731.507-1.158.182-1.28-.203.163-.548.345-1.036.549a3.92 3.92 0 01-1.523.304c-.447 0-.894-.101-1.341-.304-.406-.204-.711-.57-.914-1.097a45.52 45.52 0 01-1.95 3.23 66.506 66.506 0 01-2.255 3.29 39.948 39.948 0 01-1.95 2.62c-.163.163-.305.224-.427.184-.162-.041-.182-.143-.061-.305.935-1.178 2.011-2.661 3.23-4.449a46.932 46.932 0 003.352-5.79c1.016-2.112 1.645-4.163 1.889-6.154 1.382.65 2.072 1.483 2.072 2.498 0 .772-.325 1.564-.975 2.377-.65.772-1.503 1.483-2.559 2.133.528.772 1.198 1.158 2.011 1.158.609 0 1.219-.183 1.828-.549.65-.406 1.158-.853 1.524-1.34.325-.366.589-.61.792-.732.244-.121.447-.182.609-.182.569 0 .975.182 1.219.548.284.325.325.69.122 1.097a68.75 68.75 0 00-2.499 3.778 86.69 86.69 0 00-2.498 4.144c-.122.163-.285.528-.488 1.097-.203.57-.305 1.077-.305 1.524 0 .61.244.914.732.914.569 0 1.219-.325 1.95-.975a22.076 22.076 0 002.194-2.438 44.835 44.835 0 001.95-2.803c.609-.894 1.056-1.544 1.341-1.95.203-.366.365-.549.487-.549.041 0 .061.041.061.122 0 .163-.061.345-.183.549a63.17 63.17 0 01-1.95 3.047 91.246 91.246 0 01-2.072 2.925c-.65.853-1.32 1.524-2.011 2.011-.65.528-1.32.792-2.011.792zM240.747 41a5.013 5.013 0 01-2.559-.67c-.732-.488-1.097-1.179-1.097-2.072 0-.325.061-.67.182-1.036.122-.407.285-.711.488-.915 0 .447.142.854.427 1.22.284.324.609.588.975.792a6.35 6.35 0 001.036.365c.365.082.69.122.975.122.934 0 1.665-.325 2.194-.975.528-.69.792-1.422.792-2.194 0-.69-.183-1.3-.549-1.828a5.31 5.31 0 00-.792-.853 18.625 18.625 0 00-.914-.853 3.868 3.868 0 01-.67-.732 15.733 15.733 0 01-.793-1.28l-2.559 3.9-1.707 2.5c-.528.771-1.218 1.665-2.072 2.68-.243.285-.426.427-.548.427-.163-.04-.142-.203.061-.487a79.138 79.138 0 002.316-3.047c.609-.853 1.32-1.89 2.133-3.108.406-.569.812-1.22 1.218-1.95a8.457 8.457 0 00.976-2.255c0-1.26.426-2.357 1.279-3.291a8.03 8.03 0 013.108-2.194c1.26-.528 2.438-.731 3.535-.61.244 0 .508.184.792.55.285.365.528.771.731 1.218.204.406.305.731.305.975 0 .122-.04.183-.122.183-.122 0-.284-.081-.487-.244-.325-.284-.813-.427-1.463-.427-.853 0-1.787.244-2.803.732a9.32 9.32 0 00-2.682 1.767c-.731.69-1.097 1.422-1.097 2.194 0 .569.224 1.097.671 1.584.487.488 1.016.955 1.584 1.402.61.406 1.097.853 1.463 1.34.406.448.691.895.853 1.342.163.446.244.893.244 1.34 0 .772-.244 1.483-.731 2.133a6.393 6.393 0 01-1.768 1.524c-.853.487-1.828.731-2.925.731z" fill="#032F60"/></svg>