<svg width="200" height="30" viewBox="0 0 300 80" fill="none" xmlns="http://www.w3.org/2000/svg">
<path d="M5.79482 49.2271C4.53537 49.2271 3.35717 48.9427 2.26022 48.3739C1.12265 47.8457 0.553866 46.891 0.553866 45.5097C0.553866 44.4533 0.8992 43.4173 1.58987 42.4017C2.23991 41.4266 3.03215 40.5125 3.96658 39.6593C4.90102 38.7655 5.77451 38.0342 6.58706 37.4654C8.57781 36.0434 10.9342 34.9059 13.6563 34.0527C16.3783 33.1995 18.9582 32.7729 21.3958 32.7729C21.7615 32.7729 21.9443 32.8339 21.9443 32.9557C21.9443 33.1183 21.7818 33.1995 21.4568 33.1995C19.1004 33.1995 16.7033 33.7074 14.2657 34.723C11.8686 35.7387 9.7357 36.9372 7.86683 38.3186C7.21679 38.7655 6.48549 39.3952 5.67294 40.2078C4.86039 40.9797 4.14941 41.8329 3.53999 42.7673C2.93058 43.7424 2.62587 44.7174 2.62587 45.6925C2.62587 46.7488 2.93058 47.4801 3.53999 47.8864C4.19003 48.2926 4.96196 48.4958 5.85576 48.4958C6.95271 48.4958 8.11059 48.2926 9.32942 47.8864C10.5889 47.4801 11.5436 47.0941 12.1937 46.7285C13.9813 45.7941 15.7283 44.5549 17.4346 43.0111C19.141 41.5078 20.7661 39.8421 22.3099 38.0139C23.8538 36.1856 25.2757 34.3168 26.5758 32.4073C27.9165 30.4978 29.0744 28.6898 30.0495 26.9835C30.862 25.6022 31.6746 23.9364 32.4871 21.9863C33.3403 19.9955 34.0513 17.9642 34.6201 15.8922C35.2295 13.8202 35.5342 11.9716 35.5342 10.3465C35.5342 10.2246 35.5342 10.1027 35.5342 9.98085C35.5342 9.85897 35.5139 9.69646 35.4733 9.49332C34.742 9.41206 33.8888 9.35112 32.9137 9.3105C31.9387 9.22924 31.1261 9.18861 30.4761 9.18861C28.6885 9.18861 26.9212 9.29018 25.1742 9.49332C23.4272 9.65583 21.8427 9.98085 20.4207 10.4684C18.9988 10.9153 17.8612 11.5856 17.008 12.4794C16.1549 13.3326 15.7283 14.4499 15.7283 15.8312C15.7283 17.05 16.0939 18.2486 16.8252 19.4268C17.5971 20.605 18.5113 21.6613 19.5676 22.5957C20.6645 23.5301 21.7005 24.2614 22.6756 24.7896C22.8381 24.8302 22.9193 24.9115 22.9193 25.0334C22.9193 25.1146 22.7975 25.1552 22.5537 25.1552C22.3099 25.1552 22.1271 25.1146 22.0052 25.0334C20.7864 24.2614 19.7098 23.5098 18.7753 22.7785C17.8409 22.0472 17.0283 21.255 16.3377 20.4018C15.647 19.508 15.0579 18.472 14.5704 17.2938C14.0828 16.075 13.8391 14.8765 13.8391 13.6983C13.8391 12.642 14.0828 11.6872 14.5704 10.834C15.0579 9.98085 15.8908 9.33081 17.069 8.88391C18.0847 8.51826 19.3644 8.25418 20.9083 8.09167C22.4521 7.92916 24.0569 7.8479 25.7226 7.8479C27.5103 7.8479 29.2572 7.90885 30.9636 8.03073C32.7106 8.15261 34.1529 8.31512 35.2904 8.51826C35.1279 8.15261 34.9654 7.86822 34.8029 7.66508C34.6404 7.46194 34.4779 7.27912 34.3154 7.11661C34.4373 7.07598 34.5998 7.05567 34.8029 7.05567C35.3717 7.05567 35.8998 7.2588 36.3874 7.66508C36.9155 8.03073 37.3015 8.41669 37.5453 8.82297C38.9266 8.98548 40.1048 9.1683 41.0799 9.37144C42.0549 9.53395 42.6847 9.67614 42.969 9.79803C43.1722 9.87928 43.2738 9.98085 43.2738 10.1027C43.2738 10.3465 42.9894 10.4278 42.4206 10.3465L38.0328 9.79803C38.1953 10.6512 38.2766 11.3825 38.2766 11.9919C38.2766 13.617 38.0125 15.4046 37.4843 17.3548C36.9968 19.2643 36.3468 21.1534 35.5342 23.0223C34.7623 24.8505 33.9497 26.4756 33.0965 27.8976C32.0402 29.6446 30.7605 31.4931 29.2572 33.4433C27.754 35.3934 26.0883 37.3029 24.2601 39.1718C22.4724 41.0406 20.5629 42.7267 18.5316 44.2299C16.5408 45.7737 14.4688 46.9926 12.3155 47.8864C10.1623 48.7802 7.98871 49.2271 5.79482 49.2271ZM36.7021 41.1828C35.8083 41.1828 35.1176 40.9797 34.6301 40.5734C34.1832 40.1671 34.0004 39.639 34.0816 38.9889C34.1629 38.542 34.2847 38.0342 34.4473 37.4654C34.6098 36.8966 34.8129 36.3278 35.0567 35.759L36.5193 32.3463C36.4786 32.2651 36.438 32.2041 36.3974 32.1635C36.3974 32.0822 36.3974 32.0213 36.3974 31.9807C36.3567 31.8182 36.3771 31.676 36.4583 31.5541C37.5146 29.929 38.4897 28.568 39.3835 27.471C40.2773 26.3741 40.8664 25.8256 41.1508 25.8256C41.7196 25.8256 42.3899 26.2116 43.1619 26.9835C42.6337 27.6335 42.0852 28.3648 41.5165 29.1774C40.9477 29.9493 40.3992 30.7415 39.871 31.5541C39.3022 32.4073 38.6928 33.3417 38.0428 34.3574C37.4334 35.3325 37.0068 36.2263 36.763 37.0388C36.5193 37.7701 36.3974 38.3389 36.3974 38.7452C36.3974 39.314 36.6005 39.5983 37.0068 39.5983C37.5349 39.5983 38.3069 39.0499 39.3226 37.9529C40.0132 37.2216 40.7648 36.3278 41.5774 35.2715C42.4306 34.1746 43.2431 33.0776 44.015 31.9807C44.8276 30.8431 45.5792 29.7868 46.2699 28.8117C47.0012 27.796 47.6106 26.9835 48.0981 26.3741C48.545 25.8053 48.9513 25.5209 49.3169 25.5209C49.8451 25.5209 50.4545 25.9678 51.1452 26.8616C50.5764 27.6742 49.8857 28.7305 49.0732 30.0306C48.2606 31.29 47.509 32.5901 46.8183 33.9308C46.1683 35.2309 45.7417 36.3888 45.5386 37.4045C45.498 37.567 45.4573 37.7295 45.4167 37.892C45.4167 38.0545 45.4167 38.2373 45.4167 38.4405C45.4167 39.6187 45.7214 40.2078 46.3308 40.2078C46.6558 40.2078 47.0418 40.0249 47.4887 39.6593C47.9762 39.2936 48.4435 38.8671 48.8904 38.3795C49.3373 37.892 49.6826 37.4857 49.9264 37.1607C51.2264 35.4137 52.4656 33.6058 53.6438 31.7369C53.8875 31.3713 54.0501 31.1884 54.1313 31.1884C54.2126 31.1884 54.2329 31.2697 54.1923 31.4322C54.1923 31.5541 54.1719 31.6557 54.1313 31.7369C53.3188 33.0776 52.364 34.5402 51.2671 36.1247C50.2108 37.7092 49.1544 39.0092 48.0981 40.0249C47.5293 40.5937 46.9605 40.8781 46.3918 40.8781C45.2948 40.8781 44.4823 40.614 43.9541 40.0859C43.4259 39.5577 43.1619 38.9686 43.1619 38.3186C43.1619 37.9123 43.2228 37.4857 43.3447 37.0388C43.4666 36.5513 43.6088 36.0638 43.7713 35.5762L45.4167 31.2494C44.8073 32.0213 44.2994 32.6713 43.8932 33.1995C43.4869 33.687 43.1212 34.1543 42.7962 34.6012C42.5118 35.0074 42.1868 35.4747 41.8212 36.0028C41.4555 36.4903 41.0695 36.9779 40.6633 37.4654C39.8913 38.4811 39.1397 39.3546 38.4084 40.0859C37.6771 40.8172 37.1084 41.1828 36.7021 41.1828ZM56.091 42.0969C55.0753 42.0969 54.2018 41.7313 53.4705 41C52.7392 40.3093 52.3735 39.1718 52.3735 37.5873C52.3735 35.5559 52.9017 33.0776 53.958 30.1524C55.0143 27.2273 56.355 24.1599 57.9801 20.9503C59.2396 18.5533 60.5803 16.2578 62.0023 14.0639C63.4242 11.87 64.8259 9.91991 66.2072 8.21355C67.5886 6.46657 68.848 5.10554 69.9856 4.13048C71.1638 3.11479 72.1185 2.60695 72.8498 2.60695C73.5405 2.60695 74.0483 2.78977 74.3734 3.15542C74.739 3.52107 75.0437 3.92734 75.2875 4.37425C75.5719 4.82115 75.9375 5.1868 76.3844 5.47119C76.3438 6.40563 75.8563 7.58383 74.9218 9.00579C73.9874 10.4278 72.8701 11.9716 71.5701 13.6373C70.7169 14.653 69.4981 16.0953 67.9136 17.9642C66.3697 19.7924 64.8259 21.6816 63.282 23.6317C62.0226 25.1756 60.9053 26.6585 59.9303 28.0804C58.9552 29.5024 58.2036 30.6806 57.6754 31.615C57.5129 31.8994 57.391 32.001 57.3098 31.9197C57.2285 31.8385 57.2285 31.7166 57.3098 31.5541C57.7161 30.7415 58.3458 29.7055 59.199 28.4461C60.0928 27.146 61.0881 25.7647 62.1851 24.3021C63.282 22.8395 64.3587 21.4378 65.415 20.0971C66.4713 18.7158 67.3854 17.5173 68.1573 16.5016C68.9293 15.4859 69.4574 14.8155 69.7418 14.4905C70.3512 13.7186 70.9403 12.9873 71.5091 12.2966C72.0779 11.5653 72.5857 10.8747 73.0326 10.2246C73.5202 9.49332 73.8655 8.84328 74.0687 8.2745C74.3124 7.70571 74.4343 7.23849 74.4343 6.87284C74.4343 6.2228 74.1702 5.89778 73.6421 5.89778C73.2764 5.89778 72.8092 6.0806 72.2404 6.44625C71.7123 6.8119 71.1028 7.401 70.4122 8.21355C69.3965 9.43238 68.198 10.9356 66.8166 12.7232C65.4759 14.4702 64.0946 16.4 62.6726 18.5126C61.2507 20.6253 59.9303 22.8395 58.7114 25.1552C57.5332 27.4304 56.5582 29.7258 55.7862 32.0416C55.055 34.3168 54.6893 36.5107 54.6893 38.6233C54.6893 39.5983 54.8924 40.289 55.2987 40.6953C55.705 41.1016 56.1925 41.3047 56.7613 41.3047C57.3707 41.3047 58.0004 41.1422 58.6505 40.8172C59.3412 40.4515 59.9099 40.0046 60.3568 39.4765C61.0475 38.7452 61.7179 37.9326 62.3679 37.0388C63.0586 36.145 63.668 35.3121 64.1962 34.5402C64.7649 33.7277 65.1712 33.1183 65.415 32.712C65.5369 32.5088 65.6587 32.4073 65.7806 32.4073C65.9838 32.4073 65.9838 32.5698 65.7806 32.8948C65.1306 33.9917 64.3587 35.1496 63.4649 36.3685C62.6117 37.5467 61.8398 38.5623 61.1491 39.4155C60.499 40.2281 59.7068 40.8781 58.7724 41.3656C57.8786 41.8532 56.9848 42.0969 56.091 42.0969ZM54.3922 60.1965C53.8234 60.1965 53.214 59.9934 52.564 59.5871C51.8733 59.1808 51.3045 58.673 50.8576 58.0636C50.3701 57.4948 50.1263 56.9057 50.1263 56.2963C50.1263 55.6462 50.492 54.8337 51.2233 53.8586C51.9546 52.8836 52.8484 51.8882 53.9047 50.8725C54.961 49.8568 56.0173 48.9224 57.0736 48.0692C58.0893 47.216 58.9019 46.566 59.5113 46.1191C60.7707 45.2659 61.9286 44.5346 62.9849 43.9252C64.0819 43.3158 65.1585 42.747 66.2148 42.2188C67.2712 41.7313 68.5712 41.1828 70.1151 40.5734C71.6589 39.9234 73.0606 39.3952 74.32 38.9889C74.6451 38.4201 74.9701 37.6279 75.2951 36.6122C75.6201 35.5559 75.9045 34.4793 76.1483 33.3823C76.392 32.2854 76.5139 31.4119 76.5139 30.7619C76.5139 30.5587 76.4936 30.3353 76.453 30.0915C76.4124 29.8477 76.3108 29.7259 76.1483 29.7259C75.9858 29.7259 75.8029 29.8274 75.5998 30.0306C75.1123 30.5587 74.4825 31.3713 73.7106 32.4682C72.9387 33.5245 72.1058 34.6418 71.212 35.82C70.3182 36.9576 69.4447 37.9529 68.5915 38.8061C67.779 39.6187 67.0477 40.0249 66.3977 40.0249C65.5851 40.0249 64.9554 39.8624 64.5085 39.5374C64.0616 39.253 63.8381 38.7045 63.8381 37.892C63.8381 37.1607 63.9803 36.3685 64.2647 35.5153C64.5491 34.6621 64.8741 33.8699 65.2398 33.1386C65.6054 32.4073 65.8898 31.8791 66.093 31.5541C65.8898 31.676 65.7882 31.6963 65.7882 31.615C65.8289 31.5338 65.8695 31.4728 65.9101 31.4322C65.9508 31.2697 66.0523 31.0666 66.2148 30.8228C67.2712 29.2789 68.1853 28.0601 68.9572 27.1663C69.7697 26.2725 70.3182 25.8256 70.6026 25.8256C70.9276 25.8256 71.2323 25.9475 71.5167 26.1913C71.8418 26.3944 72.2074 26.6585 72.6137 26.9835C72.1668 27.3491 71.537 28.0398 70.7245 29.0555C69.9119 30.0712 69.0791 31.2088 68.2259 32.4682C67.4133 33.687 66.743 34.8652 66.2148 36.0028C65.9711 36.4903 65.7882 36.9169 65.6664 37.2826C65.5851 37.6482 65.5445 37.9326 65.5445 38.1358C65.5445 38.6233 65.7476 38.8671 66.1539 38.8671C66.5195 38.8671 66.9664 38.7045 67.4946 38.3795C68.0228 38.0545 68.5306 37.6279 69.0181 37.0998C70.562 35.5153 71.9636 33.8495 73.2231 32.1026C74.4825 30.3556 75.7014 28.5883 76.8796 26.8007C76.9608 26.8007 77.0421 26.8007 77.1233 26.8007C77.2452 26.76 77.3468 26.7397 77.428 26.7397C77.9968 26.7397 78.4437 26.9022 78.7688 27.2273C79.0125 27.471 79.1344 27.9789 79.1344 28.7508C79.1344 29.5227 79.0125 30.4571 78.7688 31.5541C78.5656 32.651 78.3015 33.748 77.9765 34.8449C77.6921 35.9012 77.4077 36.8357 77.1233 37.6482C76.8389 38.4608 76.6358 38.9686 76.5139 39.1718C77.6109 39.3343 78.4234 39.7812 78.9516 40.5125C79.5204 41.2031 79.8048 42.0157 79.8048 42.9501C79.8048 43.1126 79.8048 43.2751 79.8048 43.4377C79.8048 43.6002 79.7844 43.7627 79.7438 43.9252C79.7032 44.2096 79.5813 44.3315 79.3782 44.2908C79.2157 44.2908 79.1547 44.169 79.1953 43.9252C79.2766 42.8689 79.1344 41.9344 78.7688 41.1219C78.4031 40.35 77.5296 39.964 76.1483 39.964C75.417 41.386 74.4419 42.9908 73.2231 44.7784C72.0449 46.566 70.6839 48.3536 69.14 50.1412C67.6368 51.9694 66.032 53.6352 64.3257 55.1384C62.6599 56.6822 60.9739 57.9011 59.2675 58.7949C57.5612 59.7293 55.9361 60.1965 54.3922 60.1965ZM53.7219 59.0386C54.6969 59.0386 56.0173 58.5714 57.683 57.637C58.8612 56.9869 60.1207 56.0728 61.4614 54.8946C62.8021 53.7164 64.1225 52.396 65.4226 50.9334C66.7633 49.5115 68.0024 48.0895 69.14 46.6675C70.3182 45.2456 71.3136 43.9252 72.1261 42.7064C72.9387 41.5282 73.5075 40.614 73.8325 39.964C72.7356 40.2078 71.3745 40.675 69.7494 41.3656C68.1243 42.0563 66.3977 42.9298 64.5694 43.9861C62.7818 45.0831 61.0348 46.3019 59.3285 47.6426C57.6221 48.9833 56.1189 50.4053 54.8188 51.9085C54.0875 52.8023 53.4781 53.7367 52.9906 54.7118C52.4624 55.7275 52.1983 56.6213 52.1983 57.3932C52.1983 58.4902 52.7062 59.0386 53.7219 59.0386ZM86.7616 17.4157C86.7616 17.3751 86.7819 17.3344 86.8225 17.2938C86.8632 17.2532 86.9038 17.2126 86.9444 17.1719C86.985 17.0907 87.046 17.0094 87.1272 16.9282C87.4523 16.6844 87.7976 16.3391 88.1632 15.8922C88.5289 15.5265 88.8742 15.0796 89.1992 14.5515C89.5243 14.0233 89.6868 13.4748 89.6868 12.906C89.6868 12.3779 89.5649 11.9919 89.3211 11.7482C89.118 11.4638 88.8945 11.2403 88.6508 11.0778C88.407 10.9153 88.2242 10.7731 88.1023 10.6512C88.0617 10.57 88.0007 10.4887 87.9195 10.4074C87.8789 10.3262 87.8585 10.2246 87.8585 10.1027C87.8585 9.00579 88.407 8.45732 89.504 8.45732C90.0727 8.45732 90.6212 8.64014 91.1494 9.00579C91.6775 9.37144 91.9416 9.81834 91.9416 10.3465C91.9416 11.5653 91.5963 12.7435 90.9056 13.8811C90.2556 15.0187 89.4227 15.9328 88.407 16.6235C88.1632 16.786 87.8992 16.9485 87.6148 17.111C87.3304 17.2329 87.0663 17.2938 86.8225 17.2938C86.8225 17.3344 86.8022 17.3751 86.7616 17.4157ZM100.237 41C99.3023 41 98.4492 40.7765 97.6772 40.3296C96.9459 39.8421 96.5803 39.1514 96.5803 38.2576C96.5803 37.9326 96.6412 37.5873 96.7631 37.2216C96.885 36.8154 97.0475 36.5107 97.2506 36.3075C97.2506 36.7544 97.3928 37.1607 97.6772 37.5263C97.9616 37.8514 98.2866 38.1154 98.6523 38.3186C99.0179 38.4811 99.3633 38.603 99.6883 38.6842C100.054 38.7655 100.379 38.8061 100.663 38.8061C101.598 38.8061 102.329 38.4811 102.857 37.831C103.385 37.1404 103.649 36.4091 103.649 35.6372C103.649 34.9465 103.467 34.3371 103.101 33.8089C102.857 33.4839 102.593 33.1995 102.309 32.9557C102.024 32.6713 101.72 32.387 101.395 32.1026C101.151 31.8994 100.927 31.6557 100.724 31.3713C100.521 31.0869 100.257 30.6603 99.9321 30.0915L97.3725 33.9917C96.7631 34.8856 96.1943 35.7184 95.6662 36.4903C95.138 37.2623 94.4473 38.1561 93.5942 39.1718C93.3504 39.4562 93.1676 39.5983 93.0457 39.5983C92.8832 39.5577 92.9035 39.3952 93.1066 39.1108C94.0411 37.9326 94.813 36.9169 95.4224 36.0638C96.0318 35.2106 96.7428 34.1746 97.5553 32.9557C97.9616 32.387 98.3679 31.7369 98.7742 31.0056C99.2211 30.2743 99.5461 29.5227 99.7492 28.7508C99.7492 27.4913 100.176 26.3944 101.029 25.46C101.882 24.4849 102.918 23.7536 104.137 23.2661C105.396 22.7379 106.575 22.5348 107.672 22.6567C107.915 22.6567 108.179 22.8395 108.464 23.2051C108.748 23.5708 108.992 23.977 109.195 24.424C109.398 24.8302 109.5 25.1552 109.5 25.399C109.5 25.5209 109.459 25.5818 109.378 25.5818C109.256 25.5818 109.094 25.5006 108.89 25.3381C108.565 25.0537 108.078 24.9115 107.428 24.9115C106.575 24.9115 105.64 25.1552 104.625 25.6428C103.609 26.0897 102.715 26.6788 101.943 27.4101C101.212 28.1007 100.846 28.832 100.846 29.604C100.846 30.1728 101.07 30.7009 101.517 31.1884C102.004 31.676 102.532 32.1432 103.101 32.5901C103.71 32.9964 104.198 33.4433 104.564 33.9308C104.97 34.3777 105.254 34.8246 105.417 35.2715C105.579 35.7184 105.661 36.1653 105.661 36.6122C105.661 37.3841 105.417 38.0951 104.929 38.7452C104.442 39.3546 103.853 39.8624 103.162 40.2687C102.309 40.7562 101.334 41 100.237 41ZM132.861 43.6814C132.455 43.6814 132.028 43.4986 131.581 43.1329C131.175 42.7673 130.972 42.1376 130.972 41.2438C130.972 40.8781 131.215 40.2078 131.703 39.2327C132.191 38.2576 132.841 37.1201 133.653 35.82C134.506 34.4793 135.42 33.0573 136.395 31.5541C137.371 30.0509 138.346 28.6086 139.321 27.2273C139.564 26.9022 139.849 26.5163 140.174 26.0694C140.499 25.6225 140.966 25.0131 141.575 24.2411C139.097 24.7693 136.802 25.3584 134.689 26.0084C132.617 26.6585 130.586 27.2882 128.595 27.8976C126.604 28.507 124.654 29.0555 122.745 29.543C120.835 29.9899 118.946 30.3149 117.077 30.5181C115.858 30.64 114.985 30.2337 114.457 29.2993C113.928 28.3648 113.664 27.3491 113.664 26.2522C113.664 25.724 114.03 25.1552 114.761 24.5458C115.533 23.9364 116.488 23.3473 117.626 22.7785C118.804 22.2097 120.002 21.7222 121.221 21.3159C122.481 20.869 123.598 20.5643 124.573 20.4018C124.695 20.3612 124.817 20.3409 124.938 20.3409C125.06 20.3409 125.182 20.3409 125.304 20.3409C125.914 20.3409 126.218 20.4221 126.218 20.5846C126.218 20.7878 125.771 20.9706 124.878 21.1331C124.228 21.2144 123.374 21.4581 122.318 21.8644C121.302 22.2707 120.307 22.677 119.332 23.0832C117.626 23.7739 116.407 24.4036 115.675 24.9724C114.985 25.5006 114.639 25.9881 114.639 26.435C114.639 26.8819 115.005 27.2476 115.736 27.532C116.468 27.7757 117.361 27.8976 118.418 27.8976C119.149 27.8976 119.901 27.8367 120.673 27.7148C121.77 27.5523 122.907 27.3491 124.085 27.1054C125.264 26.8616 126.36 26.6178 127.376 26.3741C128.392 26.1303 129.164 25.9475 129.692 25.8256C130.951 25.5006 132.759 25.0131 135.116 24.363C137.513 23.713 140.052 23.1645 142.733 22.7176C143.912 21.1737 145.171 19.5486 146.512 17.8423C147.852 16.0953 149.132 14.3889 150.351 12.7232C151.61 11.0169 152.707 9.43238 153.642 7.96979C154.251 7.03535 154.759 6.2228 155.165 5.53213C155.572 4.80084 155.775 4.17111 155.775 3.64295C155.775 3.07417 155.47 2.64758 154.861 2.36318C154.292 2.07879 153.276 1.93659 151.814 1.93659C150.473 1.93659 148.706 2.0991 146.512 2.42413C144.358 2.70852 142.002 3.11479 139.443 3.64295C136.924 4.17111 134.405 4.82115 131.886 5.59307C127.823 6.77127 124.085 8.17292 120.673 9.79803C117.301 11.3825 114.599 13.0482 112.567 14.7952C111.917 15.3234 111.592 15.9328 111.592 16.6235C111.592 17.0297 111.714 17.3954 111.958 17.7204C112.242 18.0454 112.689 18.3095 113.299 18.5126V18.5736C113.299 18.6142 113.258 18.6955 113.177 18.8173C113.096 18.8986 112.933 18.9189 112.689 18.8783C112.364 18.797 111.816 18.533 111.044 18.0861C110.313 17.6391 109.622 17.111 108.972 16.5016C108.362 15.8922 108.058 15.3437 108.058 14.8562C108.058 14.2467 108.769 13.4748 110.191 12.5404C111.613 11.606 113.542 10.6106 115.98 9.55426C118.458 8.45732 121.241 7.38069 124.329 6.32437C127.417 5.26805 130.606 4.31331 133.897 3.46013C137.025 2.64758 140.011 2.01785 142.855 1.57095C145.74 1.12404 148.299 0.900589 150.534 0.900589C153.093 0.900589 155.145 1.26624 156.689 1.99753C158.233 2.6882 159.005 3.8664 159.005 5.53213C159.005 6.26343 158.68 7.19786 158.03 8.33544C157.38 9.47301 156.526 10.7121 155.47 12.0529C154.454 13.3529 153.357 14.653 152.179 15.9531C151.001 17.2126 149.904 18.3908 148.888 19.4877C147.873 20.5846 147.06 21.4581 146.451 22.1082C146.979 22.1082 147.812 22.1691 148.949 22.291C150.128 22.3723 151.326 22.5551 152.545 22.8395C153.764 23.1239 154.779 23.5505 155.592 24.1192C156.445 24.6474 156.811 25.3381 156.689 26.1913C157.217 26.6788 157.481 27.2476 157.481 27.8976C157.481 28.3445 157.197 28.7914 156.628 29.2383C156.059 29.6446 155.389 30.0712 154.617 30.5181C153.845 30.965 153.114 31.4119 152.423 31.8588C152.382 31.8994 152.321 31.8791 152.24 31.7979C152.2 31.676 152.2 31.5947 152.24 31.5541C152.809 31.1072 153.479 30.5181 154.251 29.7868C155.064 29.0555 155.47 28.0195 155.47 26.6788C155.47 25.785 155.104 25.1146 154.373 24.6677C153.682 24.2208 152.809 23.9161 151.753 23.7536C150.696 23.5911 149.64 23.5098 148.584 23.5098C147.121 23.5098 146.024 23.5708 145.293 23.6927C143.302 25.8865 141.372 28.2429 139.503 30.7619C137.675 33.2401 136.07 35.82 134.689 38.5014C134.77 38.5014 134.831 38.5827 134.872 38.7452C134.953 38.8671 135.034 38.8874 135.116 38.8061C135.319 38.603 135.502 38.4405 135.664 38.3186C135.867 38.1561 136.009 38.0545 136.091 38.0139C136.172 37.9732 136.213 37.9529 136.213 37.9529C136.253 37.9529 136.274 37.9529 136.274 37.9529C136.355 37.9529 136.395 37.9936 136.395 38.0748C136.395 38.2373 136.294 38.4811 136.091 38.8061C135.888 39.1311 135.745 39.4155 135.664 39.6593C135.461 40.1468 135.177 40.6953 134.811 41.3047C134.486 41.9547 134.181 42.6048 133.897 43.2548C133.694 43.5392 133.348 43.6814 132.861 43.6814ZM160.179 42.0969C159.164 42.0969 158.29 41.7313 157.559 41C156.827 40.3093 156.462 39.1718 156.462 37.5873C156.462 35.5559 156.99 33.0776 158.046 30.1524C159.103 27.2273 160.443 24.1599 162.068 20.9503C163.328 18.5533 164.669 16.2578 166.091 14.0639C167.513 11.87 168.914 9.91991 170.296 8.21355C171.677 6.46657 172.936 5.10554 174.074 4.13048C175.252 3.11479 176.207 2.60695 176.938 2.60695C177.629 2.60695 178.137 2.78977 178.462 3.15542C178.827 3.52107 179.132 3.92734 179.376 4.37425C179.66 4.82115 180.026 5.1868 180.473 5.47119C180.432 6.40563 179.945 7.58383 179.01 9.00579C178.076 10.4278 176.958 11.9716 175.658 13.6373C174.805 14.653 173.586 16.0953 172.002 17.9642C170.458 19.7924 168.914 21.6816 167.37 23.6317C166.111 25.1756 164.994 26.6585 164.019 28.0804C163.043 29.5024 162.292 30.6806 161.764 31.615C161.601 31.8994 161.479 32.001 161.398 31.9197C161.317 31.8385 161.317 31.7166 161.398 31.5541C161.804 30.7415 162.434 29.7055 163.287 28.4461C164.181 27.146 165.176 25.7647 166.273 24.3021C167.37 22.8395 168.447 21.4378 169.503 20.0971C170.56 18.7158 171.474 17.5173 172.246 16.5016C173.018 15.4859 173.546 14.8155 173.83 14.4905C174.44 13.7186 175.029 12.9873 175.597 12.2966C176.166 11.5653 176.674 10.8747 177.121 10.2246C177.608 9.49332 177.954 8.84328 178.157 8.2745C178.401 7.70571 178.523 7.23849 178.523 6.87284C178.523 6.2228 178.259 5.89778 177.73 5.89778C177.365 5.89778 176.897 6.0806 176.329 6.44625C175.801 6.8119 175.191 7.401 174.5 8.21355C173.485 9.43238 172.286 10.9356 170.905 12.7232C169.564 14.4702 168.183 16.4 166.761 18.5126C165.339 20.6253 164.019 22.8395 162.8 25.1552C161.622 27.4304 160.646 29.7258 159.875 32.0416C159.143 34.3168 158.778 36.5107 158.778 38.6233C158.778 39.5983 158.981 40.289 159.387 40.6953C159.793 41.1016 160.281 41.3047 160.85 41.3047C161.459 41.3047 162.089 41.1422 162.739 40.8172C163.429 40.4515 163.998 40.0046 164.445 39.4765C165.136 38.7452 165.806 37.9326 166.456 37.0388C167.147 36.145 167.756 35.3121 168.284 34.5402C168.853 33.7277 169.26 33.1183 169.503 32.712C169.625 32.5088 169.747 32.4073 169.869 32.4073C170.072 32.4073 170.072 32.5698 169.869 32.8948C169.219 33.9917 168.447 35.1496 167.553 36.3685C166.7 37.5467 165.928 38.5623 165.237 39.4155C164.587 40.2281 163.795 40.8781 162.861 41.3656C161.967 41.8532 161.073 42.0969 160.179 42.0969ZM172.497 41.9141C171.319 41.9141 170.303 41.4672 169.45 40.5734C168.637 39.6796 168.231 38.4608 168.231 36.9169C168.231 36.3481 168.292 35.7387 168.414 35.0887C168.576 34.398 168.8 33.687 169.084 32.9557C169.694 31.5338 170.527 30.1728 171.583 28.8727C172.68 27.5726 173.858 26.496 175.117 25.6428C176.377 24.7896 177.575 24.363 178.713 24.363C178.835 24.363 178.977 24.424 179.14 24.5458C179.302 24.6271 179.424 24.7083 179.505 24.7896L179.81 25.0943C180.298 25.5818 180.765 25.8662 181.212 25.9475C181.699 26.0287 182.085 26.2725 182.37 26.6788C182.857 27.4507 183.101 28.3851 183.101 29.4821C183.101 30.9853 182.634 32.6307 181.699 34.4183C180.805 36.1653 179.587 37.7498 178.043 39.1718C177.271 39.8624 176.418 40.4922 175.483 41.0609C174.549 41.6297 173.553 41.9141 172.497 41.9141ZM172.924 41.2438C173.899 41.2438 174.894 40.9187 175.91 40.2687C176.925 39.578 177.86 38.6842 178.713 37.5873C179.607 36.4903 180.358 35.3325 180.968 34.1136C181.618 32.8948 182.024 31.7369 182.187 30.64C182.227 30.4368 182.248 30.2337 182.248 30.0306C182.288 29.7868 182.309 29.5837 182.309 29.4211C182.309 28.3242 182.044 27.532 181.516 27.0444C180.988 26.5163 180.358 26.2522 179.627 26.2522C178.855 26.2522 178.063 26.496 177.25 26.9835C176.479 27.4304 175.503 28.3648 174.325 29.7868C173.147 31.1681 172.091 32.6104 171.156 34.1136C170.303 35.4543 169.877 36.7544 169.877 38.0139C169.877 38.9077 170.12 39.6796 170.608 40.3296C171.136 40.9391 171.908 41.2438 172.924 41.2438ZM188.568 41.8532C187.187 41.8532 186.212 41.4063 185.643 40.5125C185.115 39.6187 184.851 38.5827 184.851 37.4045C184.851 36.47 184.973 35.5356 185.217 34.6012C185.46 33.6667 185.785 32.8135 186.192 32.0416C185.867 31.8385 185.745 31.676 185.826 31.5541C186.151 31.1478 186.517 30.64 186.923 30.0306C187.329 29.4211 187.756 28.832 188.203 28.2633C188.69 27.6538 189.137 27.1257 189.543 26.6788C189.95 26.2319 190.295 25.9881 190.579 25.9475C190.783 25.8662 190.945 25.8053 191.067 25.7647C191.189 25.724 191.29 25.7037 191.372 25.7037C191.453 25.7037 191.595 25.8053 191.798 26.0084C191.961 26.2116 192.103 26.4147 192.225 26.6178C192.387 26.821 192.611 26.9632 192.895 27.0444C192.123 27.8976 191.372 28.832 190.64 29.8477C189.95 30.8228 189.3 31.8385 188.69 32.8948C188.04 34.0324 187.573 35.0481 187.289 35.9419C187.045 36.8357 186.923 37.6279 186.923 38.3186C186.923 38.6436 186.964 38.9483 187.045 39.2327C187.126 39.5171 187.207 39.7609 187.289 39.964C187.573 40.5734 188.101 40.8781 188.873 40.8781C189.645 40.8781 190.295 40.6344 190.823 40.1468C191.351 39.7405 191.9 39.1311 192.469 38.3186C193.037 37.506 193.545 36.7341 193.992 36.0028C194.48 35.2309 194.784 34.7637 194.906 34.6012C195.069 34.3574 195.455 33.8089 196.064 32.9557C196.674 32.0619 197.344 31.0869 198.075 30.0306C198.807 28.9742 199.477 28.0398 200.086 27.2273C200.696 26.4147 201.082 25.9678 201.244 25.8865C201.569 25.7647 201.813 25.7037 201.975 25.7037C202.138 25.7037 202.26 25.7647 202.341 25.8865C202.422 26.0084 202.544 26.1709 202.707 26.3741C202.951 26.7397 203.255 27.0038 203.621 27.1663C202.808 27.9789 202.036 28.893 201.305 29.9087C200.614 30.9244 199.964 31.9604 199.355 33.0167C198.664 34.2761 198.157 35.3731 197.831 36.3075C197.547 37.2013 197.405 37.9529 197.405 38.5623C197.405 39.0905 197.486 39.4968 197.649 39.7812C198.096 40.5937 198.725 41 199.538 41C200.066 41 200.513 40.8375 200.879 40.5125C201.691 39.9031 202.524 38.9686 203.377 37.7092C204.271 36.4091 205.144 35.0074 205.998 33.5042C206.891 31.9604 207.704 30.4775 208.435 29.0555C209.167 27.5929 209.776 26.4147 210.264 25.5209C211.157 23.8552 212.071 22.1894 213.006 20.5237C213.981 18.8173 215.058 17.2735 216.236 15.8922C217.455 14.4702 218.836 13.3529 220.38 12.5404C221.964 11.6872 223.792 11.2606 225.865 11.2606C226.108 11.2606 226.352 11.2606 226.596 11.2606C226.88 11.2606 227.165 11.2809 227.449 11.3216C227.733 11.3622 227.876 11.4434 227.876 11.5653C227.916 11.6466 227.774 11.6872 227.449 11.6872C225.824 11.6872 224.199 12.1747 222.574 13.1498C220.949 14.0842 219.384 15.3031 217.881 16.8063C216.419 18.3095 215.098 19.894 213.92 21.5597C212.742 23.1848 211.787 24.6677 211.056 26.0084C210.609 26.821 210.04 27.8773 209.349 29.1774C208.699 30.4775 207.948 31.8588 207.095 33.3214C206.282 34.784 205.409 36.1653 204.474 37.4654C203.58 38.7655 202.686 39.8218 201.793 40.6344C200.899 41.4469 200.046 41.8532 199.233 41.8532C197.892 41.8532 196.938 41.4063 196.369 40.5125C195.841 39.6187 195.577 38.4201 195.577 36.9169C195.577 36.5919 195.577 36.2669 195.577 35.9419C195.617 35.6168 195.658 35.2918 195.699 34.9668C194.845 36.3075 194.094 37.4045 193.444 38.2576C192.834 39.0702 192.245 39.7609 191.676 40.3296C191.148 40.8578 190.6 41.2438 190.031 41.4875C189.503 41.7313 189.015 41.8532 188.568 41.8532ZM215.468 41.7922C214.371 41.7922 213.356 41.4063 212.421 40.6344C211.527 39.8218 211.081 38.6436 211.081 37.0998C211.081 35.8809 211.406 34.5605 212.056 33.1386C212.706 31.7166 213.538 30.3556 214.554 29.0555C215.61 27.7554 216.728 26.6788 217.906 25.8256C219.084 24.9724 220.181 24.5255 221.197 24.4849C221.359 24.6474 221.542 24.7693 221.745 24.8505C221.989 24.9318 222.212 25.0131 222.416 25.0943L224 25.46C224.894 25.7037 225.341 26.2725 225.341 27.1663C225.341 27.6945 225.158 28.2633 224.792 28.8727C224.467 29.4821 223.959 30.0102 223.269 30.4571C222.903 30.7009 222.497 30.9447 222.05 31.1884C221.644 31.4322 221.217 31.676 220.77 31.9197L218.028 33.3823C217.175 33.8292 216.423 34.3168 215.773 34.8449C215.123 35.3325 214.656 35.8606 214.371 36.4294C214.371 36.4294 214.31 36.4497 214.189 36.4903C214.107 36.4903 214.087 36.4091 214.128 36.2466C214.412 35.5559 214.96 34.8652 215.773 34.1746C216.626 33.4433 217.479 32.8135 218.333 32.2854C218.739 31.9604 219.145 31.676 219.551 31.4322C219.998 31.1884 220.425 30.9244 220.831 30.64C221.237 30.3556 221.623 30.0712 221.989 29.7868C222.395 29.4618 222.741 29.1571 223.025 28.8727C223.35 28.5476 223.573 28.2226 223.695 27.8976C223.858 27.5726 223.939 27.2882 223.939 27.0444C223.939 26.2725 223.492 25.8865 222.598 25.8865C222.03 25.8865 221.38 26.1303 220.648 26.6178C219.755 27.2273 218.901 27.9586 218.089 28.8117C217.276 29.6243 216.504 30.5181 215.773 31.4931C215.001 32.5495 214.31 33.7683 213.701 35.1496C213.132 36.531 212.848 37.6889 212.848 38.6233C212.848 39.5577 213.112 40.2281 213.64 40.6344C214.209 41 214.859 41.1828 215.59 41.1828C216.606 41.1828 217.581 40.9187 218.515 40.3906C219.206 39.9843 219.856 39.4765 220.465 38.8671C221.075 38.217 221.583 37.6482 221.989 37.1607C222.314 36.7544 222.68 36.2669 223.086 35.6981C223.533 35.1293 223.838 34.7027 224 34.4183C224.081 34.3371 224.142 34.3371 224.183 34.4183C224.224 34.4996 224.244 34.5605 224.244 34.6012C224.081 34.8856 223.797 35.3528 223.391 36.0028C223.025 36.6122 222.477 37.3841 221.745 38.3186C220.892 39.4155 219.998 40.2687 219.064 40.8781C218.129 41.4875 216.931 41.7922 215.468 41.7922ZM230.398 41.7922C229.423 41.7922 228.753 41.4672 228.387 40.8172C228.021 40.1265 227.899 39.3952 228.021 38.6233C228.184 37.567 228.468 36.7138 228.874 36.0638C229.321 35.4137 229.849 34.7027 230.459 33.9308C230.946 33.2401 231.414 32.5292 231.861 31.7979C232.307 31.0666 232.368 30.64 232.043 30.5181C231.84 30.6806 231.495 30.8634 231.007 31.0666C230.52 31.2697 230.012 31.3713 229.484 31.3713C229.037 31.3713 228.59 31.2697 228.143 31.0666C227.737 30.8634 227.432 30.4978 227.229 29.9696C226.701 30.9447 226.051 32.0213 225.279 33.1995C224.548 34.3371 223.796 35.434 223.024 36.4903C222.293 37.5467 221.643 38.4201 221.074 39.1108C220.911 39.2733 220.769 39.3343 220.647 39.2936C220.485 39.253 220.465 39.1514 220.586 38.9889C221.521 37.8107 222.597 36.3278 223.816 34.5402C225.035 32.7526 226.152 30.8228 227.168 28.7508C228.184 26.6382 228.813 24.5865 229.057 22.5957C230.439 23.2458 231.129 24.0786 231.129 25.0943C231.129 25.8662 230.804 26.6585 230.154 27.471C229.504 28.2429 228.651 28.9539 227.595 29.604C228.123 30.3759 228.793 30.7619 229.606 30.7619C230.215 30.7619 230.825 30.579 231.434 30.2134C232.084 29.8071 232.592 29.3602 232.958 28.8727C233.283 28.507 233.547 28.2633 233.75 28.1414C233.994 28.0195 234.197 27.9586 234.359 27.9586C234.928 27.9586 235.334 28.1414 235.578 28.507C235.862 28.832 235.903 29.1977 235.7 29.604C234.969 30.6197 234.136 31.8791 233.201 33.3823C232.267 34.8449 231.434 36.2263 230.703 37.5263C230.581 37.6889 230.418 38.0545 230.215 38.6233C230.012 39.1921 229.91 39.6999 229.91 40.1468C229.91 40.7562 230.154 41.0609 230.642 41.0609C231.211 41.0609 231.861 40.7359 232.592 40.0859C233.323 39.3952 234.054 38.5827 234.786 37.6482C235.517 36.6732 236.167 35.7387 236.736 34.8449C237.345 33.9511 237.792 33.3011 238.077 32.8948C238.28 32.5292 238.442 32.3463 238.564 32.3463C238.605 32.3463 238.625 32.387 238.625 32.4682C238.625 32.6307 238.564 32.8135 238.442 33.0167C237.833 34.0324 237.183 35.0481 236.492 36.0638C235.801 37.0794 235.111 38.0545 234.42 38.9889C233.77 39.8421 233.1 40.5125 232.409 41C231.759 41.5282 231.089 41.7922 230.398 41.7922ZM240.747 41C239.813 41 238.959 40.7765 238.188 40.3296C237.456 39.8421 237.091 39.1514 237.091 38.2576C237.091 37.9326 237.152 37.5873 237.273 37.2216C237.395 36.8154 237.558 36.5107 237.761 36.3075C237.761 36.7544 237.903 37.1607 238.188 37.5263C238.472 37.8514 238.797 38.1154 239.163 38.3186C239.528 38.4811 239.874 38.603 240.199 38.6842C240.564 38.7655 240.889 38.8061 241.174 38.8061C242.108 38.8061 242.839 38.4811 243.368 37.831C243.896 37.1404 244.16 36.4091 244.16 35.6372C244.16 34.9465 243.977 34.3371 243.611 33.8089C243.368 33.4839 243.103 33.1995 242.819 32.9557C242.535 32.6713 242.23 32.387 241.905 32.1026C241.661 31.8994 241.438 31.6557 241.235 31.3713C241.031 31.0869 240.767 30.6603 240.442 30.0915L237.883 33.9917C237.273 34.8856 236.705 35.7184 236.176 36.4903C235.648 37.2623 234.958 38.1561 234.104 39.1718C233.861 39.4562 233.678 39.5983 233.556 39.5983C233.393 39.5577 233.414 39.3952 233.617 39.1108C234.551 37.9326 235.323 36.9169 235.933 36.0638C236.542 35.2106 237.253 34.1746 238.066 32.9557C238.472 32.387 238.878 31.7369 239.284 31.0056C239.731 30.2743 240.056 29.5227 240.26 28.7508C240.26 27.4913 240.686 26.3944 241.539 25.46C242.392 24.4849 243.428 23.7536 244.647 23.2661C245.907 22.7379 247.085 22.5348 248.182 22.6567C248.426 22.6567 248.69 22.8395 248.974 23.2051C249.259 23.5708 249.502 23.977 249.705 24.424C249.909 24.8302 250.01 25.1552 250.01 25.399C250.01 25.5209 249.97 25.5818 249.888 25.5818C249.766 25.5818 249.604 25.5006 249.401 25.3381C249.076 25.0537 248.588 24.9115 247.938 24.9115C247.085 24.9115 246.151 25.1552 245.135 25.6428C244.119 26.0897 243.225 26.6788 242.453 27.4101C241.722 28.1007 241.356 28.832 241.356 29.604C241.356 30.1728 241.58 30.7009 242.027 31.1884C242.514 31.676 243.043 32.1432 243.611 32.5901C244.221 32.9964 244.708 33.4433 245.074 33.9308C245.48 34.3777 245.765 34.8246 245.927 35.2715C246.09 35.7184 246.171 36.1653 246.171 36.6122C246.171 37.3841 245.927 38.0951 245.44 38.7452C244.952 39.3546 244.363 39.8624 243.672 40.2687C242.819 40.7562 241.844 41 240.747 41Z" fill="#032F60"/>
</svg>
