<?xml version="1.0" standalone="no"?>
<!DOCTYPE svg PUBLIC "-//W3C//DTD SVG 20010904//EN"
 "http://www.w3.org/TR/2001/REC-SVG-20010904/DTD/svg10.dtd">
<svg version="1.0" xmlns="http://www.w3.org/2000/svg"
 width="264.000000pt" height="264.000000pt" viewBox="0 0 264.000000 264.000000"
 preserveAspectRatio="xMidYMid meet">
<metadata>
Created by potrace 1.14, written by Peter Selinger 2001-2017
</metadata>
<g transform="translate(0.000000,264.000000) scale(0.100000,-0.100000)"
fill="#000000" stroke="none">
<path d="M1170 2629 c-290 -30 -484 -113 -643 -275 -63 -64 -109 -141 -143
-239 -23 -69 -27 -97 -28 -200 -1 -135 4 -174 34 -259 81 -235 296 -380 732
-495 62 -16 147 -39 188 -51 41 -12 98 -27 125 -35 275 -75 402 -172 409 -313
8 -157 -87 -263 -279 -314 -106 -28 -346 -31 -445 -5 -147 39 -247 115 -305
231 -55 109 -64 112 -292 111 -130 -1 -190 -5 -207 -15 -37 -19 -42 -63 -22
-165 29 -143 142 -308 271 -393 22 -15 42 -29 45 -32 24 -27 250 -121 325
-136 166 -33 204 -37 365 -38 184 -1 241 4 363 29 316 65 543 224 642 450 14
30 26 65 29 77 2 13 8 41 14 63 5 22 10 49 11 60 5 220 -15 320 -87 431 -111
170 -305 273 -702 375 -404 104 -548 159 -630 242 -103 103 -94 294 19 385
145 116 462 128 641 24 57 -34 123 -101 138 -141 7 -17 17 -45 23 -61 7 -17
24 -39 39 -50 26 -18 45 -20 228 -20 186 0 201 1 226 21 35 27 35 84 0 187
-97 291 -402 503 -786 548 -76 9 -227 10 -298 3z"/>
</g>
</svg>
